<svg width="20" height="20" viewBox="0 0 20 20" fill="none" xmlns="http://www.w3.org/2000/svg">
<path d="M8.75 1.3281V2.59748C6.79667 2.98831 5.24396 3.92581 4.09187 5.40998C2.93979 6.89414 2.42229 8.63248 2.53938 10.625C2.74771 12.6041 3.54521 14.2319 4.93187 15.5081C6.31854 16.7844 8.00792 17.4485 10 17.5006C11.875 17.4614 13.4896 16.8689 14.8438 15.7231C16.1979 14.5773 17.0508 13.0864 17.4025 11.2506H18.6525C18.2617 13.5685 17.2038 15.4175 15.4788 16.7975C13.7538 18.1775 11.7192 18.8156 9.375 18.7119C7.04417 18.4906 5.12354 17.5694 3.61313 15.9481C2.10271 14.3269 1.315 12.3444 1.25 10.0006C1.28917 7.77393 1.99875 5.8631 3.37875 4.2681C4.75875 2.6731 6.54917 1.69331 8.75 1.32873V1.3281ZM11.25 1.89435V8.74998H18.1056C17.9102 6.88789 17.1844 5.32873 15.9281 4.07248C14.6719 2.81623 13.1127 2.09039 11.2506 1.89498L11.25 1.89435ZM10 1.24998V0.644351C11.2763 0.566018 12.5035 0.744976 13.6819 1.18123C14.8602 1.61748 15.9019 2.2881 16.8069 3.1931C17.7119 4.0981 18.3825 5.13977 18.8188 6.3181C19.255 7.49643 19.434 8.72373 19.3556 9.99998H10V1.24998Z" fill="#BFCBD9"/>
</svg>
