<svg width="20" height="20" viewBox="0 0 20 20" fill="none" xmlns="http://www.w3.org/2000/svg">
<path d="M1.79432 5.12501C1.79432 5.74629 2.31644 6.25001 2.96063 6.25001C3.60468 6.25001 4.12694 5.74629 4.12694 5.12501C4.12694 4.50372 3.60468 4 2.96063 4C2.31644 4 1.79432 4.50372 1.79432 5.12501ZM18.1222 4H6.2651C6.09851 4 5.98735 4.13391 5.98735 4.26782V5.9821C5.98735 6.14286 6.12623 6.25001 6.2651 6.25001H18.1222C18.2888 6.25001 18.4 6.1161 18.4 5.9821V4.26792C18.4 4.10724 18.2611 4 18.1222 4ZM1.6 9.89295C1.6 10.5141 2.12212 11.0179 2.76618 11.0179C3.41036 11.0179 3.93248 10.5141 3.93248 9.89285C3.93248 9.27156 3.41036 8.76785 2.76618 8.76785C2.12212 8.76785 1.6 9.27166 1.6 9.89295ZM17.9002 8.76794H6.0428C5.8762 8.76794 5.76505 8.90176 5.76505 9.03567V10.75C5.76505 10.9107 5.90392 11.0179 6.0428 11.0179H17.8999C18.0665 11.0179 18.1777 10.8839 18.1777 10.75V9.03558C18.1777 8.90166 18.0668 8.76794 17.9002 8.76794ZM1.6 14.875C1.6 15.4963 2.12212 16 2.76618 16C3.41036 16 3.93248 15.4963 3.93248 14.875C3.93248 14.2537 3.41036 13.75 2.76618 13.75C2.12212 13.75 1.6 14.2537 1.6 14.875ZM17.9002 13.75H6.0428C5.8762 13.75 5.76505 13.8839 5.76505 14.0179V15.7322C5.76505 15.8929 5.90392 16 6.0428 16H17.8999C18.0665 16 18.1777 15.8661 18.1777 15.7322V14.0179C18.1777 13.8839 18.0668 13.75 17.9002 13.75Z" fill="#BFCBD9"/>
</svg>
