<svg width="20" height="20" viewBox="0 0 20 20" fill="none" xmlns="http://www.w3.org/2000/svg">
<path d="M12.0313 11.3672L2.65625 11.3672C2.57031 11.3672 2.5 11.4375 2.5 11.5234L2.5 12.6172C2.5 12.7031 2.57031 12.7734 2.65625 12.7734L12.0313 12.7734C12.1172 12.7734 12.1875 12.7031 12.1875 12.6172L12.1875 11.5234C12.1875 11.4375 12.1172 11.3672 12.0313 11.3672ZM12.1875 7.38281C12.1875 7.29687 12.1172 7.22656 12.0313 7.22656L2.65625 7.22656C2.57031 7.22656 2.5 7.29687 2.5 7.38281L2.5 8.47656C2.5 8.5625 2.57031 8.63281 2.65625 8.63281L12.0313 8.63281C12.1172 8.63281 12.1875 8.5625 12.1875 8.47656L12.1875 7.38281ZM2.34375 16.875L17.6562 16.875C17.7422 16.875 17.8125 16.8047 17.8125 16.7188L17.8125 15.625C17.8125 15.5391 17.7422 15.4687 17.6563 15.4687L2.34375 15.4687C2.25781 15.4687 2.1875 15.5391 2.1875 15.625L2.1875 16.7187C2.1875 16.8047 2.25781 16.875 2.34375 16.875ZM2.34375 4.53125L17.6563 4.53125C17.7422 4.53125 17.8125 4.46094 17.8125 4.375L17.8125 3.28125C17.8125 3.19531 17.7422 3.125 17.6563 3.125L2.34375 3.125C2.25781 3.125 2.1875 3.19531 2.1875 3.28125L2.1875 4.375C2.1875 4.46094 2.25781 4.53125 2.34375 4.53125ZM17.2188 7.45898L14.166 9.86328C14.1455 9.87944 14.1288 9.90005 14.1174 9.92356C14.106 9.94708 14.1001 9.97288 14.1001 9.99902C14.1001 10.0252 14.106 10.051 14.1174 10.0745C14.1288 10.098 14.1455 10.1186 14.166 10.1348L17.2188 12.541C17.332 12.6309 17.5 12.5508 17.5 12.4063L17.5 7.5957C17.5 7.56308 17.4908 7.53112 17.4735 7.50346C17.4562 7.4758 17.4315 7.45357 17.4022 7.43931C17.3728 7.42505 17.3401 7.41933 17.3076 7.42281C17.2752 7.42629 17.2444 7.43883 17.2188 7.45898V7.45898Z" fill="black"/>
</svg>
