<svg width="22" height="18" viewBox="0 0 22 18" fill="none" xmlns="http://www.w3.org/2000/svg">
<path d="M2 14.5C2 15.3281 2.67188 16 3.5 16H18.5C19.3281 16 20 15.3281 20 14.5V9H2V14.5ZM8 12.375C8 12.1687 8.16875 12 8.375 12H12.625C12.8312 12 13 12.1687 13 12.375V13.625C13 13.8312 12.8312 14 12.625 14H8.375C8.16875 14 8 13.8312 8 13.625V12.375ZM4 12.375C4 12.1687 4.16875 12 4.375 12H6.625C6.83125 12 7 12.1687 7 12.375V13.625C7 13.8312 6.83125 14 6.625 14H4.375C4.16875 14 4 13.8312 4 13.625V12.375ZM20 3.5V5H2V3.5C2 2.67187 2.67188 2 3.5 2H18.5C19.3281 2 20 2.67187 20 3.5Z" fill="#BFCBD9"/>
</svg>
