<svg width="20" height="21" viewBox="0 0 20 21" fill="none" xmlns="http://www.w3.org/2000/svg">
<path d="M10 10.5C11.0677 10.474 11.9531 10.1094 12.6562 9.40625C13.3594 8.70312 13.724 7.81771 13.75 6.75C13.724 5.68229 13.3594 4.79688 12.6562 4.09375C11.9531 3.39062 11.0677 3.02604 10 3C8.93229 3.02604 8.04688 3.39062 7.34375 4.09375C6.64062 4.79688 6.27604 5.68229 6.25 6.75C6.27604 7.81771 6.64062 8.70312 7.34375 9.40625C8.04688 10.1094 8.93229 10.474 10 10.5ZM10 11.75C8.58073 11.7109 7.40234 11.2227 6.46484 10.2852C5.52734 9.34766 5.03906 8.16927 5 6.75C5.03906 5.33073 5.52734 4.15234 6.46484 3.21484C7.40234 2.27734 8.58073 1.78906 10 1.75C11.4193 1.78906 12.5977 2.27734 13.5352 3.21484C14.4727 4.15234 14.9609 5.33073 15 6.75C14.9609 8.16927 14.4727 9.34766 13.5352 10.2852C12.5977 11.2227 11.4193 11.7109 10 11.75ZM16.25 18V16.125C16.237 15.5911 16.0547 15.1484 15.7031 14.7969C15.3516 14.4453 14.9089 14.263 14.375 14.25H5.625C5.09115 14.263 4.64844 14.4453 4.29688 14.7969C3.94531 15.1484 3.76302 15.5911 3.75 16.125V18C3.75 18.1823 3.69141 18.332 3.57422 18.4492C3.45703 18.5664 3.30729 18.625 3.125 18.625C2.94271 18.625 2.79297 18.5664 2.67578 18.4492C2.55859 18.332 2.5 18.1823 2.5 18V16.125C2.52604 15.2396 2.83203 14.5039 3.41797 13.918C4.00391 13.332 4.73958 13.026 5.625 13H14.375C15.2604 13.026 15.9961 13.332 16.582 13.918C17.168 14.5039 17.474 15.2396 17.5 16.125V18C17.5 18.1823 17.4414 18.332 17.3242 18.4492C17.207 18.5664 17.0573 18.625 16.875 18.625C16.6927 18.625 16.543 18.5664 16.4258 18.4492C16.3086 18.332 16.25 18.1823 16.25 18Z" fill="#606266"/>
</svg>
