<svg width="20" height="20" viewBox="0 0 20 20" fill="none" xmlns="http://www.w3.org/2000/svg">
<path d="M2.5 15.78C2.5 16.4574 2.76908 17.107 3.24805 17.5859C3.72702 18.0649 4.37664 18.334 5.054 18.334H17.054V14.5H18.331V9.9H17.056V6.075H14.5V2.5H5.054C4.37664 2.5 3.72702 2.76908 3.24805 3.24805C2.76908 3.72702 2.5 4.37664 2.5 5.054V15.78ZM16.8 11.439V12.97H13.48C13.2768 12.97 13.082 12.8893 12.9384 12.7456C12.7947 12.602 12.714 12.4072 12.714 12.204C12.714 12.0008 12.7947 11.806 12.9384 11.6624C13.082 11.5187 13.2768 11.438 13.48 11.438L16.8 11.439ZM15.523 7.608V9.908H13.481C12.871 9.908 12.286 10.1503 11.8547 10.5817C11.4233 11.013 11.181 11.598 11.181 12.208C11.181 12.818 11.4233 13.403 11.8547 13.8343C12.286 14.2657 12.871 14.508 13.481 14.508H15.524V16.808H5.054C4.78295 16.808 4.523 16.7003 4.33134 16.5087C4.13967 16.317 4.032 16.0571 4.032 15.786V7.393C4.35406 7.5348 4.70211 7.60802 5.054 7.608H15.523ZM5.053 4.033H12.97V6.076H5.054C4.91717 6.08028 4.78087 6.05703 4.65319 6.00762C4.52552 5.95821 4.40907 5.88366 4.31076 5.78838C4.21246 5.6931 4.13429 5.57904 4.08092 5.45297C4.02754 5.32691 4.00003 5.1914 4.00003 5.0545C4.00003 4.9176 4.02754 4.78209 4.08092 4.65602C4.13429 4.52996 4.21246 4.4159 4.31076 4.32062C4.40907 4.22535 4.52552 4.15079 4.65319 4.10138C4.78087 4.05197 4.91717 4.02872 5.054 4.033H5.053Z" fill="#BFCBD9"/>
</svg>
